Music_CrossEncounter:
	musicheader 4, 1, Music_CrossEncounter_Ch1
	musicheader 1, 2, Music_CrossEncounter_Ch2
	musicheader 1, 3, Music_CrossEncounter_Ch3
	musicheader 1, 4, Music_CrossEncounter_Ch4

Music_CrossEncounter_Ch1:
	tempo $70
	volume $77
	stereopanning $77
	octave 3
	notetype $C, $00
	note F#, 4
	note __, 4
	dutycycle 3
	intensity $3F
	vibrato $04, $24
	note C#, 8
Music_CrossEncounter_Ch1_loop:
	dutycycle 2
	notetype $C, $A4
	octave 3
	note F#, 6
	note C#, 6
	note F#, 4
	note G_, 4
	note F#, 4
	note E_, 4
	note G_, 4
	note F#, 6
	note C#, 6
	note F#, 4
	note E_, 6
	octave 2
	note A_, 6
	octave 3
	note E_, 4
	note F#, 6
	note C#, 6
	note F#, 4
	note C#, 4
	note E_, 4
	note F#, 4
	note A_, 4
	octave 5
	note C#, 4
	octave 4
	note B_, 4
	note A_, 4
	note G#, 4
	note A_, 4
	note F#, 4
	note C#, 4
	note F_, 4
	intensity $A7
	octave 3
	note F#, 6
	note E_, 2
	note F#, 2
	note G#, 2
	note A_, 4
	note E_, 8
	octave 2
	note B_, 8
	octave 3
	note D_, 6
	note E_, 2
	note F#, 2
	note G#, 2
	note A_, 4
	note B_, 8
	note E_, 8
	note F#, 6
	note E_, 2
	note F#, 2
	note G#, 2
	note A_, 4
	note E_, 8
	octave 2
	note B_, 8
	octave 3
	note D_, 6
	note E_, 2
	note F#, 2
	note G#, 2
	note A_, 4
	note F_, 8
	note G#, 8
	dutycycle 0
	intensity $D4
	note A_, 2
	note F#, 2
	note __, 2
	note F#, 4
	note C#, 2
	note F#, 2
	note G#, 2
	note A_, 4
	note F#, 4
	note C#, 2
	octave 2
	note A_, 2
	octave 3
	note E_, 4
	note D_, 6
	octave 2
	note A_, 6
	octave 3
	note D_, 4
	octave 2
	note B_, 6
	octave 3
	note D_, 6
	octave 2
	note B_, 4
	octave 3
	note F#, 2
	note C#, 2
	note __, 2
	note C#, 4
	octave 2
	note A_, 2
	octave 3
	note C#, 2
	octave 2
	note A_, 2
	octave 3
	note E_, 4
	note C#, 4
	octave 2
	note B_, 4
	note G#, 2
	note E_, 2
	note A_, 4
	note B_, 4
	octave 3
	note C#, 4
	note E_, 4
	note F_, 6
	note C#, 6
	note G#, 4
	loopchannel 0, Music_CrossEncounter_Ch1_loop

Music_CrossEncounter_Ch2:
	octave 3
	notetype $C, $00
	note C#, 4
	note __, 4
	dutycycle 3
	intensity $C2
	vibrato $04, $24
	octave 4
	note C#, 2
	octave 3
	note B_, 2
	note A_, 2
	note G_, 2
Music_CrossEncounter_Ch2_loop:
	dutycycle 3
	octave 3
	notetype $C, $D5
	note C#, 12
	octave 2
	note B_, 2
	octave 3
	note C#, 2
	note D_, 8
	octave 2
	note B_, 8
	octave 3
	note C#, 12
	octave 2
	note B_, 2
	note A_, 2
	note G#, 8
	note B_, 4
	note G#, 2
	note B_, 2
	octave 3
	note C#, 12
	octave 2
	note B_, 2
	octave 3
	note C#, 2
	note E_, 8
	note C#, 8
	note F#, 6
	note E_, 6
	note D_, 4
	note C#, 8
	note F_, 8
	note __, 2
	intensity $C2
	octave 4
	note C#, 2
	note F#, 2
	note G#, 2
	intensity $C4
	note A_, 4
	intensity $C2
	note G#, 2
	note F#, 2
	intensity $C4
	note G#, 4
	note E_, 4
	octave 3
	note B_, 4
	intensity $C2
	octave 4
	note G#, 2
	note A_, 2
	note __, 2
	note C#, 2
	note F#, 2
	note G#, 2
	intensity $C4
	note A_, 4
	intensity $C2
	note G#, 2
	note F#, 2
	intensity $C4
	note B_, 4
	note G#, 4
	note E_, 4
	intensity $C2
	note D_, 2
	note C#, 2
	note __, 2
	note C#, 2
	note F#, 2
	note G#, 2
	intensity $C4
	note A_, 4
	intensity $C2
	note G#, 2
	note F#, 2
	intensity $C4
	note G#, 4
	note E_, 4
	octave 3
	note B_, 4
	note G#, 2
	octave 4
	note E_, 2
	intensity $C7
	note F#, 12
	intensity $C2
	note E_, 4
	intensity $C8
	octave 5
	note C#, 4
	intensity $C7
	note C#, 8
	intensity $5D
	note C#, 4
	dutycycle 2
	intensity $C4
	octave 4
	note A_, 4
	note G#, 4
	note F#, 4
	note E_, 4
	note F#, 4
	note E_, 4
	note C#, 4
	octave 3
	note A_, 2
	note A#, 2
	intensity $C7
	note B_, 16
	note G#, 12
	intensity $C4
	note E_, 2
	note B_, 2
	note A_, 6
	note F#, 6
	octave 4
	note C#, 4
	octave 3
	note B_, 6
	note G#, 6
	octave 4
	note E_, 4
	intensity $C7
	note D_, 12
	octave 3
	note B_, 4
	intensity $3D
	octave 4
	note C#, 8
	intensity $B8
	note C#, 4
	intensity $B4
	note C#, 4
	loopchannel 0, Music_CrossEncounter_Ch2_loop

Music_CrossEncounter_Ch3:
	octave 2
	notetype $C, $00
	note F#, 4
	note __, 12
Music_CrossEncounter_Ch3_loop:
	dutycycle 4
	notetype $C, $14
	note F#, 2
	octave 3
	note F#, 2
	octave 2
	note F#, 2
	octave 3
	note F#, 2
	octave 2
	note F#, 2
	octave 3
	note F#, 2
	octave 2
	note F#, 2
	octave 3
	note F#, 2
	octave 2
	note G_, 2
	octave 3
	note G_, 2
	octave 2
	note G_, 2
	octave 3
	note G_, 2
	octave 2
	note G_, 2
	octave 3
	note G_, 2
	octave 2
	note G_, 2
	octave 3
	note G_, 2
	octave 2
	note F#, 2
	octave 3
	note F#, 2
	octave 2
	note F#, 2
	octave 3
	note F#, 2
	octave 2
	note F#, 2
	octave 3
	note F#, 2
	octave 2
	note F#, 2
	octave 3
	note F#, 2
	octave 2
	note E_, 2
	octave 3
	note E_, 2
	octave 2
	note E_, 2
	octave 3
	note E_, 2
	octave 2
	note E_, 2
	octave 3
	note E_, 2
	octave 2
	note E_, 2
	octave 3
	note E_, 2
	octave 2
	note F#, 2
	octave 3
	note F#, 2
	octave 2
	note F#, 2
	octave 3
	note F#, 2
	octave 2
	note F#, 2
	octave 3
	note F#, 2
	octave 2
	note F#, 2
	octave 3
	note F#, 2
	octave 2
	note A_, 2
	octave 3
	note A_, 2
	octave 2
	note A_, 2
	octave 3
	note A_, 2
	octave 2
	note A_, 2
	octave 3
	note A_, 2
	octave 2
	note A_, 2
	octave 3
	note A_, 2
	octave 2
	note D_, 2
	octave 3
	note D_, 2
	octave 2
	note D_, 2
	octave 3
	note D_, 2
	octave 2
	note D_, 2
	octave 3
	note D_, 2
	octave 2
	note D_, 2
	octave 3
	note D_, 2
	octave 2
	note E_, 2
	octave 3
	note E_, 2
	octave 2
	note E_, 2
	octave 3
	note E_, 2
	note C#, 2
	octave 4
	note C#, 2
	octave 3
	note B_, 2
	note A_, 2
	octave 2
	note F#, 2
	octave 3
	note F#, 2
	octave 2
	note F#, 2
	octave 3
	note F#, 2
	octave 2
	note E_, 2
	octave 3
	note E_, 2
	octave 2
	note E_, 2
	octave 3
	note E_, 2
	octave 2
	note C#, 2
	octave 3
	note C#, 2
	octave 2
	note C#, 2
	octave 3
	note C#, 2
	octave 2
	note C#, 2
	octave 3
	note C#, 2
	octave 2
	note C#, 2
	octave 3
	note C#, 2
	octave 2
	note D_, 2
	octave 3
	note D_, 2
	octave 2
	note D_, 2
	octave 3
	note D_, 2
	octave 2
	note E_, 2
	octave 3
	note E_, 2
	octave 2
	note E_, 2
	octave 3
	note E_, 2
	octave 2
	note C#, 2
	octave 3
	note C#, 2
	octave 2
	note C#, 2
	octave 3
	note C#, 2
	octave 2
	note C#, 2
	octave 3
	note C#, 2
	octave 2
	note C#, 2
	octave 3
	note C#, 2
	octave 2
	note F#, 2
	octave 3
	note F#, 2
	octave 2
	note F#, 2
	octave 3
	note F#, 2
	octave 2
	note E_, 2
	octave 3
	note E_, 2
	octave 2
	note E_, 2
	octave 3
	note E_, 2
	octave 2
	note C#, 2
	octave 3
	note C#, 2
	octave 2
	note C#, 2
	octave 3
	note C#, 2
	octave 2
	note C#, 2
	octave 3
	note C#, 2
	octave 2
	note C#, 2
	octave 3
	note C#, 2
	octave 2
	note D_, 2
	octave 3
	note D_, 2
	octave 2
	note D_, 2
	octave 3
	note D_, 2
	octave 2
	note E_, 2
	octave 3
	note E_, 2
	octave 2
	note E_, 2
	octave 3
	note E_, 2
	octave 2
	note C#, 2
	octave 3
	note C#, 2
	octave 2
	note C#, 2
	octave 3
	note C#, 2
	octave 2
	note F_, 2
	octave 3
	note F_, 2
	octave 2
	note F_, 2
	octave 3
	note F_, 2
	octave 2
	note F#, 2
	octave 3
	note F#, 2
	octave 2
	note F#, 2
	octave 3
	note F#, 2
	octave 2
	note F#, 2
	octave 3
	note F#, 2
	octave 2
	note F#, 2
	octave 3
	note F#, 2
	octave 2
	note A_, 2
	octave 3
	note A_, 2
	octave 2
	note A_, 2
	octave 3
	note A_, 2
	octave 2
	note A_, 2
	octave 3
	note A_, 2
	octave 2
	note A_, 2
	octave 3
	note A_, 2
	octave 2
	note B_, 2
	octave 3
	note B_, 2
	octave 2
	note B_, 2
	octave 3
	note B_, 2
	octave 2
	note B_, 2
	octave 3
	note B_, 2
	octave 2
	note B_, 2
	octave 3
	note B_, 2
	octave 2
	note E_, 2
	octave 3
	note E_, 2
	octave 2
	note E_, 2
	octave 3
	note E_, 2
	octave 2
	note E_, 2
	octave 3
	note E_, 2
	octave 2
	note E_, 2
	octave 3
	note E_, 2
	octave 2
	note F#, 2
	octave 3
	note F#, 2
	octave 2
	note F#, 2
	octave 3
	note F#, 2
	octave 2
	note F#, 2
	octave 3
	note F#, 2
	octave 2
	note F#, 2
	octave 3
	note F#, 2
	octave 2
	note A_, 2
	octave 3
	note A_, 2
	octave 2
	note A_, 2
	octave 3
	note A_, 2
	octave 2
	note A_, 2
	octave 3
	note A_, 2
	octave 2
	note A_, 2
	octave 3
	note A_, 2
	octave 2
	note D_, 2
	octave 3
	note D_, 2
	octave 2
	note D_, 2
	octave 3
	note D_, 2
	octave 2
	note D_, 2
	octave 3
	note D_, 2
	octave 2
	note D_, 2
	octave 3
	note D_, 2
	note F_, 4
	octave 2
	note F_, 4
	octave 3
	note F_, 4
	octave 2
	note F_, 2
	octave 3
	note F_, 2
	loopchannel 0, Music_CrossEncounter_Ch3_loop

Music_CrossEncounter_Ch4:
	togglenoise 3
	notetype $C
	note C_, 2
	note D#, 2
	note C_, 2
	note D#, 1
	note C#, 1
	note F#, 2
	note D#, 1
	note C#, 1
	note C_, 2
	note D#, 1
	note C#, 1
Music_CrossEncounter_Ch4_loop:
	notetype $C
	note B_, 2
	note D#, 2
	note C_, 2
	note D_, 2
	note D#, 2
	note D#, 2
	note C_, 2
	note D_, 2
	note D#, 2
	note D#, 2
	note C_, 2
	note D_, 1
	note D_, 1
	note D#, 2
	note D#, 2
	note C_, 2
	note D_, 2
	note G#, 2
	note D#, 2
	note C_, 2
	note D_, 2
	note D#, 2
	note D#, 2
	note C_, 2
	note D_, 2
	note D#, 2
	note D#, 2
	note C_, 2
	note D_, 1
	note D_, 1
	note D#, 2
	note D#, 2
	note C_, 2
	note D_, 2
	note G#, 2
	note D#, 2
	note C_, 2
	note D_, 2
	note D#, 2
	note D#, 2
	note C_, 2
	note D_, 2
	note D#, 2
	note D#, 2
	note C_, 2
	note D_, 1
	note D_, 1
	note D#, 2
	note D#, 2
	note C_, 2
	note D_, 2
	note G#, 2
	note D#, 1
	note D#, 1
	note C#, 2
	note D#, 1
	note D#, 1
	note C#, 2
	note D#, 1
	note D#, 1
	note C#, 2
	note D#, 1
	note D#, 1
	note C#, 1
	note C#, 1
	note C#, 1
	note C#, 1
	note D#, 1
	note D#, 1
	note D#, 1
	note D#, 1
	note D_, 1
	note D_, 1
	note D_, 1
	note D_, 1
	note E_, 2
	note E_, 2
	note B_, 2
	note D#, 2
	note C_, 2
	note D_, 2
	note D#, 2
	note D#, 2
	note C_, 2
	note D_, 2
	note D#, 2
	note D#, 2
	note C_, 2
	note D_, 1
	note D_, 1
	note D#, 2
	note D#, 2
	note C_, 2
	note D_, 2
	note G#, 2
	note D#, 2
	note C_, 2
	note D_, 2
	note D#, 2
	note D#, 2
	note C_, 2
	note D_, 2
	note D#, 2
	note D#, 2
	note C_, 2
	note D_, 1
	note D_, 1
	note D#, 2
	note D#, 2
	note C_, 2
	note D_, 2
	note G#, 2
	note D#, 2
	note C_, 2
	note D_, 2
	note D#, 2
	note D#, 2
	note C_, 2
	note D_, 2
	note D#, 2
	note D#, 2
	note C_, 2
	note D_, 1
	note D_, 1
	note D#, 2
	note D#, 2
	note C_, 2
	note D_, 2
	note G#, 2
	note D#, 2
	note C_, 2
	note D_, 2
	note D#, 2
	note D#, 2
	note C_, 2
	note D_, 2
	note C#, 2
	note D#, 1
	note D#, 1
	note C#, 2
	note D#, 1
	note D#, 1
	note G_, 1
	note G_, 1
	note G_, 1
	note G_, 1
	note D_, 1
	note D_, 1
	note D_, 1
	note D_, 1
	note B_, 2
	note D#, 2
	note C_, 2
	note D_, 2
	note D#, 2
	note D#, 2
	note C_, 2
	note D_, 2
	note D#, 2
	note D#, 2
	note C_, 2
	note D_, 1
	note D_, 1
	note D#, 2
	note D#, 2
	note C_, 2
	note D_, 2
	note G#, 2
	note D#, 2
	note C_, 2
	note D_, 2
	note D#, 2
	note D#, 2
	note C_, 2
	note D_, 2
	note D#, 2
	note D#, 2
	note C_, 2
	note D_, 1
	note D_, 1
	note D#, 2
	note D#, 2
	note C_, 2
	note D_, 2
	note G#, 2
	note D#, 2
	note C_, 2
	note D_, 2
	note D#, 2
	note D#, 2
	note C_, 2
	note D_, 2
	note D#, 2
	note D#, 2
	note C_, 2
	note D_, 1
	note D_, 1
	note D#, 2
	note D#, 2
	note C_, 2
	note D_, 2
	note G#, 2
	note D#, 1
	note D#, 1
	note C#, 2
	note D#, 1
	note D#, 1
	note C#, 2
	note D#, 1
	note D#, 1
	note C#, 2
	note D#, 1
	note D#, 1
	note C#, 1
	note C#, 1
	note C#, 1
	note C#, 1
	note D#, 1
	note D#, 1
	note D#, 1
	note D#, 1
	note D_, 1
	note D_, 1
	note D_, 1
	note D_, 1
	note C_, 1
	note C_, 1
	note C_, 1
	note C_, 1
	loopchannel 0, Music_CrossEncounter_Ch4_loop

